HIERARCHY
ROOT Hips
{
    OFFSET 0.000000 0.000000 0.000000
    CHANNELS 6 Xposition Yposition Zposition Zrotation Xrotation Yrotation
    JOINT Spine
    {
        OFFSET -0.000000 7.236184 0.000000
        CHANNELS 3 Zrotation Xrotation Yrotation
        JOINT Spine1
        {
            OFFSET -0.000000 20.420147 0.000000
            CHANNELS 3 Zrotation Xrotation Yrotation
            JOINT Neck
            {
                OFFSET -0.000000 20.336288 1.848754
                CHANNELS 3 Zrotation Xrotation Yrotation
                JOINT Head
                {
                    OFFSET -0.000000 12.354461 -1.764923
                    CHANNELS 3 Zrotation Xrotation Yrotation
                    End Site
                    {
                        OFFSET -0.000000 22.061537 0.000000
                    }
                }
            }
            JOINT LeftShoulder
            {
                OFFSET 3.573296 18.396038 -0.314103
                CHANNELS 3 Zrotation Xrotation Yrotation
                JOINT LeftArm
                {
                    OFFSET 10.880760 0.000000 0.000000
                    CHANNELS 3 Zrotation Xrotation Yrotation
                    JOINT LeftForeArm
                    {
                        OFFSET 27.185530 0.000000 0.000000
                        CHANNELS 3 Zrotation Xrotation Yrotation
                        JOINT LeftHand
                        {
                            OFFSET 27.825975 0.000000 0.000000
                            CHANNELS 3 Zrotation Xrotation Yrotation
                            End Site
                            {
                                OFFSET 13.236923 0.000000 0.000000
                            }
                        }
                    }
                }
            }
            JOINT RightShoulder
            {
                OFFSET -3.474926 18.396038 -0.314103
                CHANNELS 3 Zrotation Xrotation Yrotation
                JOINT RightArm
                {
                    OFFSET -10.880760 0.000000 0.000000
                    CHANNELS 3 Zrotation Xrotation Yrotation
                    JOINT RightForeArm
                    {
                        OFFSET -27.185530 0.000000 0.000000
                        CHANNELS 3 Zrotation Xrotation Yrotation
                        JOINT RightHand
                        {
                            OFFSET -27.825975 0.000000 0.000000
                            CHANNELS 3 Zrotation Xrotation Yrotation
                            End Site
                            {
                                OFFSET -13.236923 0.000000 0.000000
                            }
                        }
                    }
                }
            }
        }
    }
    JOINT LeftUpLeg
    {
        OFFSET 8.824615 0.000000 0.000000
        CHANNELS 3 Zrotation Xrotation Yrotation
        JOINT LeftLeg
        {
            OFFSET -0.000000 -35.111282 0.000000
            CHANNELS 3 Zrotation Xrotation Yrotation
            JOINT LeftFoot
            {
                OFFSET -0.000000 -42.324711 0.000000
                CHANNELS 3 Zrotation Xrotation Yrotation
                JOINT LeftToeBase
                {
                    OFFSET -0.000000 -5.735999 13.236923
                    CHANNELS 3 Zrotation Xrotation Yrotation
                    End Site
                    {
                        OFFSET -0.000000 0.000000 3.529846
                    }
                }
            }
        }
    }
    JOINT RightUpLeg
    {
        OFFSET -8.824615 0.000000 0.000000
        CHANNELS 3 Zrotation Xrotation Yrotation
        JOINT RightLeg
        {
            OFFSET -0.000000 -35.111282 0.000000
            CHANNELS 3 Zrotation Xrotation Yrotation
            JOINT RightFoot
            {
                OFFSET -0.000000 -42.324711 0.000000
                CHANNELS 3 Zrotation Xrotation Yrotation
                JOINT RightToeBase
                {
                    OFFSET -0.000000 -5.735999 13.236923
                    CHANNELS 3 Zrotation Xrotation Yrotation
                    End Site
                    {
                        OFFSET -0.000000 0.000000 3.529846
                    }
                }
            }
        }
    }
}
MOTION
Frames:    9
Frame Time:    0.008333
-5.349461    82.330498    102.546921    -0.268714    -11.147505    -175.300781    -1.926403    -11.181671    0.593164    -0.432724    7.441471    0.809992    1.399422    -1.477913    -4.303524    9.910237    -5.817312    -2.798540    0.406190    17.498753    -1.996285    -52.616856    38.804577    -33.254185    -0.832689    -9.907853    -9.576474    20.752502    -8.947113    5.694804    5.861958    18.467279    -4.703529    47.292824    42.887623    30.795649    -4.798286    -11.029448    31.422167    -15.109862    -8.824260    -6.689880    1.709308    -12.874633    -2.932070    -0.872238    11.568340    -5.510850    -1.224257    -8.244707    -5.746977    -0.682765    0.486449    0.756160    -3.162174    -6.822807    0.861118    3.413791    2.716939    4.117837    -1.513516    -4.438277    -12.285771    -0.035159    0.217639    0.038016
-5.356268    82.340553    102.558197    -0.280076    -11.287337    -175.295898    -1.924985    -11.102991    0.613495    -0.452059    7.539186    0.830367    1.379839    -1.462841    -4.350083    10.039308    -6.110036    -2.793833    0.377149    17.494656    -2.053249    -52.326321    38.889874    -33.396130    -0.902163    -9.873774    -9.506195    20.804644    -8.920038    5.669814    5.842385    18.452963    -4.641863    47.138241    42.944225    30.904369    -4.948012    -11.146110    32.054710    -15.122508    -8.862700    -6.745974    1.672415    -13.009068    -2.964759    -0.864418    11.539639    -5.474880    -1.224666    -8.202685    -5.759740    -0.687864    0.500087    0.761789    -3.192845    -6.952733    0.805304    3.412575    2.684896    4.114275    -1.505844    -4.399240    -12.241784    -0.051433    0.233295    0.055611
-5.362931    82.350563    102.570511    -0.291342    -11.428128    -175.290558    -1.925073    -11.025808    0.635728    -0.469950    7.640698    0.852928    1.364346    -1.432617    -4.398431    10.170238    -6.389337    -2.791646    0.348918    17.490316    -2.113603    -52.017757    38.995155    -33.556339    -0.975217    -9.834716    -9.441126    20.854712    -8.889463    5.638703    5.822039    18.437269    -4.580723    46.972202    43.007957    31.025234    -5.102760    -11.256163    32.694088    -15.135859    -8.891352    -6.798072    1.634655    -13.145743    -2.995723    -0.854676    11.511860    -5.440726    -1.226133    -8.160502    -5.773148    -0.692590    0.512815    0.767005    -3.223461    -7.084894    0.750810    3.411242    2.653950    4.109779    -1.498168    -4.360220    -12.198917    -0.067361    0.248149    0.072831
-5.369229    82.360413    102.583847    -0.301822    -11.569136    -175.284103    -1.926647    -10.950914    0.659463    -0.485729    7.745462    0.877111    1.353383    -1.388135    -4.448000    10.301414    -6.650843    -2.792151    0.322059    17.485901    -2.176175    -51.694000    39.119247    -33.734520    -1.051272    -9.790496    -9.382307    20.902649    -8.855132    5.601740    5.800433    18.420166    -4.520758    46.796967    43.077377    31.157007    -5.260946    -11.358800    33.335888    -15.149443    -8.910002    -6.845943    1.597198    -13.284174    -3.024814    -0.843600    11.485319    -5.408837    -1.228554    -8.118497    -5.787249    -0.696829    0.524438    0.771684    -3.253157    -7.218485    0.698131    3.409833    2.623951    4.104400    -1.490343    -4.321348    -12.158076    -0.082797    0.261836    0.089519
-5.374999    82.369995    102.598190    -0.310848    -11.710805    -175.275772    -1.929557    -10.878443    0.684473    -0.499014    7.853823    0.902450    1.347576    -1.329395    -4.498458    10.432076    -6.893416    -2.795473    0.296951    17.481274    -2.240542    -51.355534    39.262348    -33.931145    -1.129755    -9.741121    -9.330037    20.948486    -8.816948    5.559321    5.777115    18.401642    -4.461908    46.613129    43.151749    31.299355    -5.422541    -11.454448    33.981747    -15.162539    -8.918899    -6.889913    1.560867    -13.424844    -3.051457    -0.831371    11.459754    -5.380039    -1.231888    -8.076419    -5.802354    -0.700697    0.534878    0.775953    -3.281117    -7.353580    0.646913    3.407938    2.594619    4.098015    -1.482534    -4.282724    -12.119372    -0.097791    0.274491    0.105728
-5.379969    82.379150    102.613358    -0.317518    -11.851112    -175.264969    -1.933465    -10.809358    0.709837    -0.509327    7.963614    0.928234    1.347292    -1.258242    -4.548732    10.559705    -7.110980    -2.801645    0.274521    17.476969    -2.304789    -51.009308    39.420715    -34.143406    -1.209088    -9.687343    -9.285135    20.991392    -8.775444    5.512421    5.752241    18.382648    -4.405260    46.424076    43.228867    31.450083    -5.584854    -11.542022    34.621738    -15.174257    -8.918324    -6.929641    1.527460    -13.565907    -3.075428    -0.819052    11.435506    -5.354830    -1.235917    -8.034821    -5.818393    -0.704130    0.544460    0.779741    -3.305967    -7.488118    0.597574    3.405321    2.566004    4.090400    -1.474725    -4.244750    -12.083192    -0.112140    0.286262    0.121240
-5.384232    82.388268    102.629997    -0.321567    -11.996484    -175.250305    -1.938316    -10.740556    0.736214    -0.517058    8.079359    0.954979    1.353009    -1.171774    -4.600601    10.689416    -7.311208    -2.810949    0.253828    17.472923    -2.371105    -50.641571    39.600098    -34.380203    -1.292291    -9.627161    -9.245678    21.033712    -8.728995    5.459442    5.724607    18.362198    -4.347923    46.222614    43.311802    31.614592    -5.755266    -11.625996    35.284584    -15.184437    -8.908681    -6.966896    1.496145    -13.713979    -3.097636    -0.806321    11.411583    -5.332961    -1.240731    -7.991817    -5.836070    -0.707364    0.553077    0.783311    -3.328134    -7.628100    0.547532    3.401545    2.536665    4.080687    -1.466635    -4.205760    -12.047687    -0.126478    0.297342    0.136740
-5.387428    82.396896    102.647331    -0.322045    -12.139603    -175.231598    -1.943451    -10.675351    0.761813    -0.521757    8.194223    0.980790    1.364917    -1.074371    -4.651054    10.814054    -7.480618    -2.823071    0.236081    17.469501    -2.435622    -50.273388    39.790146    -34.628704    -1.374345    -9.564194    -9.213729    21.073298    -8.680431    5.403577    5.695972    18.341982    -4.292703    46.019440    43.395523    31.784023    -5.925312    -11.702265    35.936207    -15.191592    -8.890449    -6.999975    1.469437    -13.861937    -3.116825    -0.794316    11.389216    -5.316015    -1.245878    -7.949351    -5.854752    -0.710194    0.560726    0.786434    -3.345694    -7.766302    0.499107    3.396624    2.507871    4.069124    -1.458536    -4.167740    -12.014832    -0.140082    0.307536    0.151446
-5.389664    82.405334    102.665840    -0.318791    -12.284949    -175.207733    -1.948840    -10.611567    0.786928    -0.523656    8.310849    1.006045    1.383264    -0.964205    -4.701324    10.937074    -7.623168    -2.838289    0.220389    17.466881    -2.499580    -49.896240    39.994007    -34.894756    -1.457132    -9.497818    -9.187772    21.111776    -8.629250    5.344216    5.665752    18.321571    -4.237786    45.809910    43.481979    31.961855    -6.100471    -11.773771    36.595779    -15.195396    -8.863647    -7.030103    1.446655    -14.014590    -3.133951    -0.782867    11.368064    -5.303806    -1.251377    -7.906291    -5.874779    -0.712764    0.567515    0.789270    -3.359221    -7.906879    0.450612    3.390538    2.478614    4.055743    -1.450154    -4.129552    -11.984244    -0.153354    0.316925    0.165792
